<svg xmlns="http://www.w3.org/2000/svg" viewBox="0 0 512 512" width="512" height="512">
  <defs>
    <linearGradient id="bg" x1="72" y1="54" x2="438" y2="466" gradientUnits="userSpaceOnUse">
      <stop offset="0" stop-color="#203642"/>
      <stop offset="0.52" stop-color="#2f7475"/>
      <stop offset="1" stop-color="#5d55d9"/>
    </linearGradient>
    <linearGradient id="paper" x1="126" y1="100" x2="352" y2="410" gradientUnits="userSpaceOnUse">
      <stop offset="0" stop-color="#fff7df"/>
      <stop offset="1" stop-color="#f3efe4"/>
    </linearGradient>
    <linearGradient id="handle" x1="96" y1="330" x2="328" y2="330" gradientUnits="userSpaceOnUse">
      <stop offset="0" stop-color="#f6c86b"/>
      <stop offset="0.55" stop-color="#e98f45"/>
      <stop offset="1" stop-color="#8f4bb4"/>
    </linearGradient>
    <filter id="softShadow" x="-20%" y="-20%" width="140%" height="150%">
      <feDropShadow dx="0" dy="18" stdDeviation="18" flood-color="#07161d" flood-opacity="0.28"/>
    </filter>
    <filter id="smallShadow" x="-20%" y="-30%" width="140%" height="170%">
      <feDropShadow dx="0" dy="10" stdDeviation="10" flood-color="#07161d" flood-opacity="0.22"/>
    </filter>
  </defs>

  <rect x="24" y="24" width="464" height="464" rx="112" fill="url(#bg)"/>
  <path d="M86 124C126 67 215 53 286 70c76 18 133 74 149 143 18 76-19 154-88 200-68 45-162 49-229 0-75-54-91-202-32-289Z" fill="#ffffff" opacity="0.08"/>
  <path d="M79 376c74 42 154 48 249 20 60-18 102-53 126-91v113c0 20-16 36-36 36H93c-20 0-36-16-36-36v-62c7 7 14 13 22 20Z" fill="#101828" opacity="0.12"/>

  <g filter="url(#softShadow)" transform="rotate(-7 244 248)">
    <rect x="129" y="86" width="254" height="338" rx="42" fill="url(#paper)"/>
    <path d="M159 116c40 7 74 5 111-6 27-8 53-5 83 7" fill="none" stroke="#fffef6" stroke-width="10" stroke-linecap="round" opacity="0.85"/>
    <path d="M168 168c33-19 73-22 112-11 40 11 69 34 87 66" fill="none" stroke="#1b3141" stroke-width="10" stroke-linecap="round" stroke-linejoin="round" opacity="0.33"/>
    <path d="M172 201c35-12 68-10 98 5 28 14 48 34 60 60" fill="none" stroke="#2f7475" stroke-width="8" stroke-linecap="round" stroke-linejoin="round" opacity="0.48"/>
    <path d="M181 270c29-15 61-18 93-8 29 9 50 28 63 55" fill="none" stroke="#5d55d9" stroke-width="8" stroke-linecap="round" stroke-linejoin="round" opacity="0.38"/>
    <path d="M187 333c16-10 38-12 58-5 19 6 34 19 44 36" fill="none" stroke="#1b3141" stroke-width="8" stroke-linecap="round" stroke-linejoin="round" opacity="0.32"/>
    <path d="M196 154l24 30 35-48 62 84 23-35" fill="none" stroke="#203642" stroke-width="7" stroke-linecap="round" stroke-linejoin="round" opacity="0.26"/>
    <circle cx="332" cy="154" r="18" fill="none" stroke="#e98f45" stroke-width="8" opacity="0.65"/>
    <path d="M180 383c48 6 96 4 146-7" fill="none" stroke="#203642" stroke-width="7" stroke-linecap="round" opacity="0.18"/>
  </g>

  <g filter="url(#smallShadow)" transform="translate(82 340) rotate(-42)">
    <rect x="0" y="-20" width="242" height="40" rx="20" fill="url(#handle)"/>
    <path d="M17-7c54 7 110 6 169-3" fill="none" stroke="#fff5cb" stroke-width="5" stroke-linecap="round" opacity="0.48"/>
    <circle cx="36" cy="0" r="8" fill="#5c2e2a" opacity="0.78"/>
    <rect x="214" y="-26" width="56" height="52" rx="13" fill="#d8e2e7"/>
    <path d="M222-19c13 5 28 7 44 7" fill="none" stroke="#ffffff" stroke-width="5" stroke-linecap="round" opacity="0.72"/>
    <path d="M264-29c34 6 62 16 83 29-21 14-49 25-83 31-9-17-9-43 0-60Z" fill="#1f2937"/>
    <path d="M292-16c17 5 34 11 55 16-21 6-38 11-55 17" fill="none" stroke="#6d62f1" stroke-width="8" stroke-linecap="round" opacity="0.9"/>
  </g>

  <path d="M147 418c28 15 60 22 97 23 33 1 63-4 91-16" fill="none" stroke="#ffffff" stroke-width="6" stroke-linecap="round" opacity="0.22"/>
  <path d="M353 78c33 16 56 42 71 77" fill="none" stroke="#ffffff" stroke-width="7" stroke-linecap="round" opacity="0.16"/>
</svg>
